<mxfile host="app.diagrams.net" modified="2024-04-26T06:36:05.572Z" agent="Mozilla/5.0 (Windows NT 10.0; Win64; x64) AppleWebKit/537.36 (KHTML, like Gecko) Chrome/124.0.0.0 Safari/537.36 Edg/124.0.0.0" etag="3I11qZshnCnlgRRvWkVk" version="24.3.0" type="github" pages="3">
  <diagram name="Database_input" id="tOD7As1vqEOn8QU1HWs3">
    <mxGraphModel dx="1973" dy="1784" grid="1" gridSize="10" guides="1" tooltips="1" connect="1" arrows="1" fold="1" page="1" pageScale="1" pageWidth="850" pageHeight="1100" math="0" shadow="0">
      <root>
        <mxCell id="0" />
        <mxCell id="1" parent="0" />
        <mxCell id="sJqgMgaKANiySwUrU2yU-2" value="Models.py" style="swimlane;whiteSpace=wrap;html=1;" parent="1" vertex="1">
          <mxGeometry x="190" y="230" width="250" height="250" as="geometry">
            <mxRectangle x="200" y="200" width="100" height="30" as="alternateBounds" />
          </mxGeometry>
        </mxCell>
        <mxCell id="sJqgMgaKANiySwUrU2yU-3" value="" style="group" parent="sJqgMgaKANiySwUrU2yU-2" vertex="1" connectable="0">
          <mxGeometry x="30" y="30" width="220" height="210" as="geometry" />
        </mxCell>
        <mxCell id="sJqgMgaKANiySwUrU2yU-4" value="&lt;div style=&quot;box-sizing:border-box;width:100%;background:#e4e4e4;padding:2px;&quot;&gt;Document&lt;/div&gt;&lt;table style=&quot;width:100%;font-size:1em;&quot; cellpadding=&quot;2&quot; cellspacing=&quot;0&quot;&gt;&lt;tbody&gt;&lt;tr&gt;&lt;td&gt;PK&lt;/td&gt;&lt;td&gt;ID&lt;/td&gt;&lt;/tr&gt;&lt;tr&gt;&lt;td&gt;&lt;br&gt;&lt;/td&gt;&lt;td&gt;filename:CharField&lt;br&gt;&lt;/td&gt;&lt;/tr&gt;&lt;tr&gt;&lt;td&gt;&lt;br&gt;&lt;/td&gt;&lt;td&gt;&lt;br&gt;&lt;/td&gt;&lt;/tr&gt;&lt;/tbody&gt;&lt;/table&gt;" style="verticalAlign=top;align=left;overflow=fill;html=1;whiteSpace=wrap;movable=1;resizable=1;rotatable=1;deletable=1;editable=1;locked=0;connectable=1;" parent="sJqgMgaKANiySwUrU2yU-3" vertex="1">
          <mxGeometry width="180" height="60" as="geometry" />
        </mxCell>
        <mxCell id="sJqgMgaKANiySwUrU2yU-5" value="&lt;div style=&quot;box-sizing:border-box;width:100%;background:#e4e4e4;padding:2px;&quot;&gt;DocumentChunk&lt;br&gt;&lt;/div&gt;&lt;table style=&quot;width:100%;font-size:1em;&quot; cellpadding=&quot;2&quot; cellspacing=&quot;0&quot;&gt;&lt;tbody&gt;&lt;tr&gt;&lt;td&gt;PK&lt;/td&gt;&lt;td&gt;chunk_id:AutoField&lt;br&gt;&lt;/td&gt;&lt;/tr&gt;&lt;tr&gt;&lt;td&gt;FK1&lt;/td&gt;&lt;td&gt;document&lt;/td&gt;&lt;/tr&gt;&lt;tr&gt;&lt;td&gt;&lt;/td&gt;&lt;td&gt;text:TextField&lt;br&gt;vector:VectorField&lt;br&gt;&lt;/td&gt;&lt;/tr&gt;&lt;/tbody&gt;&lt;/table&gt;" style="verticalAlign=top;align=left;overflow=fill;html=1;whiteSpace=wrap;movable=1;resizable=1;rotatable=1;deletable=1;editable=1;locked=0;connectable=1;" parent="sJqgMgaKANiySwUrU2yU-3" vertex="1">
          <mxGeometry y="120" width="180" height="90" as="geometry" />
        </mxCell>
        <mxCell id="sJqgMgaKANiySwUrU2yU-6" value="" style="edgeStyle=entityRelationEdgeStyle;fontSize=12;html=1;endArrow=ERmany;rounded=0;exitX=1;exitY=0.5;exitDx=0;exitDy=0;entryX=1;entryY=0.5;entryDx=0;entryDy=0;movable=1;resizable=1;rotatable=1;deletable=1;editable=1;locked=0;connectable=1;" parent="sJqgMgaKANiySwUrU2yU-3" source="sJqgMgaKANiySwUrU2yU-4" target="sJqgMgaKANiySwUrU2yU-5" edge="1">
          <mxGeometry width="100" height="100" relative="1" as="geometry">
            <mxPoint x="210" y="60" as="sourcePoint" />
            <mxPoint x="210" y="120" as="targetPoint" />
            <Array as="points">
              <mxPoint x="210" y="90" />
              <mxPoint x="220" y="100" />
            </Array>
          </mxGeometry>
        </mxCell>
        <mxCell id="sJqgMgaKANiySwUrU2yU-7" value="Views.py" style="swimlane;whiteSpace=wrap;html=1;" parent="1" vertex="1">
          <mxGeometry x="-140" y="230" width="280" height="250" as="geometry">
            <mxRectangle x="200" y="200" width="100" height="30" as="alternateBounds" />
          </mxGeometry>
        </mxCell>
        <mxCell id="sJqgMgaKANiySwUrU2yU-8" value="&lt;p style=&quot;margin:0px;margin-top:4px;text-align:center;&quot;&gt;&lt;i&gt;&amp;lt;&amp;lt;def&amp;gt;&amp;gt;&lt;/i&gt;&lt;br&gt;&lt;b&gt;database_save&lt;/b&gt;&lt;br&gt;&lt;/p&gt;&lt;hr size=&quot;1&quot; style=&quot;border-style:solid;&quot;&gt;&lt;p style=&quot;margin:0px;margin-left:4px;&quot;&gt;POST:&lt;/p&gt;&lt;p style=&quot;margin:0px;margin-left:4px;&quot;&gt;data:list files&lt;/p&gt;&lt;hr size=&quot;1&quot; style=&quot;border-style:solid;&quot;&gt;&lt;p style=&quot;margin:0px;margin-left:4px;&quot;&gt;JsonResponse&lt;/p&gt;&lt;p style=&quot;margin:0px;margin-left:4px;&quot;&gt;({&quot;database_status&quot;:&#39;success&#39;})&lt;br&gt;&lt;/p&gt;" style="verticalAlign=top;align=left;overflow=fill;html=1;whiteSpace=wrap;" parent="sJqgMgaKANiySwUrU2yU-7" vertex="1">
          <mxGeometry x="30" y="100" width="190" height="140" as="geometry" />
        </mxCell>
        <mxCell id="sJqgMgaKANiySwUrU2yU-9" value="«instance»&lt;br&gt;&lt;span style=&quot;background-color: rgb(43, 43, 43); color: rgb(169, 183, 198); font-family: &amp;quot;JetBrains Mono&amp;quot;, monospace; font-size: 9.8pt;&quot;&gt;embedding&lt;/span&gt;&lt;div&gt;&lt;span style=&quot;background-color: rgb(43, 43, 43); color: rgb(169, 183, 198); font-family: &amp;quot;JetBrains Mono&amp;quot;, monospace; font-size: 9.8pt;&quot;&gt;_instance&lt;/span&gt;&lt;/div&gt;" style="html=1;whiteSpace=wrap;" parent="sJqgMgaKANiySwUrU2yU-7" vertex="1">
          <mxGeometry x="10" y="35" width="110" height="50" as="geometry" />
        </mxCell>
        <mxCell id="sJqgMgaKANiySwUrU2yU-10" value="«instance»&lt;br&gt;&lt;div style=&quot;background-color:#2b2b2b;color:#a9b7c6;font-family:&#39;JetBrains Mono&#39;,monospace;font-size:9.8pt;&quot;&gt;&lt;pre&gt;docs_separate_instance&lt;/pre&gt;&lt;/div&gt;" style="html=1;whiteSpace=wrap;" parent="sJqgMgaKANiySwUrU2yU-7" vertex="1">
          <mxGeometry x="130" y="35" width="140" height="50" as="geometry" />
        </mxCell>
        <mxCell id="sJqgMgaKANiySwUrU2yU-11" value="filename" style="edgeStyle=orthogonalEdgeStyle;rounded=0;orthogonalLoop=1;jettySize=auto;html=1;exitX=1;exitY=0.25;exitDx=0;exitDy=0;entryX=0;entryY=0.5;entryDx=0;entryDy=0;" parent="1" source="sJqgMgaKANiySwUrU2yU-8" target="sJqgMgaKANiySwUrU2yU-4" edge="1">
          <mxGeometry relative="1" as="geometry">
            <Array as="points">
              <mxPoint x="160" y="365" />
              <mxPoint x="160" y="290" />
            </Array>
          </mxGeometry>
        </mxCell>
        <mxCell id="sJqgMgaKANiySwUrU2yU-12" value="chunks" style="edgeStyle=orthogonalEdgeStyle;rounded=0;orthogonalLoop=1;jettySize=auto;html=1;exitX=1;exitY=0.5;exitDx=0;exitDy=0;entryX=-0.037;entryY=0.395;entryDx=0;entryDy=0;entryPerimeter=0;" parent="1" source="sJqgMgaKANiySwUrU2yU-8" target="sJqgMgaKANiySwUrU2yU-5" edge="1">
          <mxGeometry relative="1" as="geometry">
            <mxPoint x="190" y="550" as="targetPoint" />
            <Array as="points">
              <mxPoint x="170" y="400" />
              <mxPoint x="170" y="416" />
            </Array>
          </mxGeometry>
        </mxCell>
        <mxCell id="sJqgMgaKANiySwUrU2yU-13" value="Urls.py" style="swimlane;whiteSpace=wrap;html=1;" parent="1" vertex="1">
          <mxGeometry x="-310" y="230" width="150" height="250" as="geometry">
            <mxRectangle x="200" y="200" width="100" height="30" as="alternateBounds" />
          </mxGeometry>
        </mxCell>
        <mxCell id="sJqgMgaKANiySwUrU2yU-14" value="«url»&lt;br&gt;&lt;b&gt;database_save/&lt;/b&gt;" style="html=1;whiteSpace=wrap;" parent="sJqgMgaKANiySwUrU2yU-13" vertex="1">
          <mxGeometry x="20" y="100" width="110" height="50" as="geometry" />
        </mxCell>
        <mxCell id="sJqgMgaKANiySwUrU2yU-15" value="HTML Database" style="swimlane;whiteSpace=wrap;html=1;" parent="1" vertex="1">
          <mxGeometry x="-310" y="-40" width="350" height="250" as="geometry">
            <mxRectangle x="200" y="200" width="100" height="30" as="alternateBounds" />
          </mxGeometry>
        </mxCell>
        <mxCell id="sJqgMgaKANiySwUrU2yU-16" value="submitBtn" style="labelPosition=center;verticalLabelPosition=middle;align=center;html=1;shape=mxgraph.basic.button;dx=7.9;whiteSpace=wrap;" parent="sJqgMgaKANiySwUrU2yU-15" vertex="1">
          <mxGeometry x="230" y="50" width="100" height="60" as="geometry" />
        </mxCell>
        <mxCell id="sJqgMgaKANiySwUrU2yU-17" value="" style="edgeStyle=orthogonalEdgeStyle;rounded=0;orthogonalLoop=1;jettySize=auto;html=1;entryX=0;entryY=0;entryDx=160;entryDy=25;entryPerimeter=0;exitX=-0.003;exitY=0.422;exitDx=0;exitDy=0;exitPerimeter=0;" parent="sJqgMgaKANiySwUrU2yU-15" source="sJqgMgaKANiySwUrU2yU-16" target="sJqgMgaKANiySwUrU2yU-18" edge="1">
          <mxGeometry relative="1" as="geometry">
            <mxPoint x="280" y="75" as="sourcePoint" />
            <mxPoint x="200" y="70" as="targetPoint" />
          </mxGeometry>
        </mxCell>
        <mxCell id="sJqgMgaKANiySwUrU2yU-18" value="&lt;div style=&quot;background-color:#2b2b2b;color:#a9b7c6;font-family:&#39;JetBrains Mono&#39;,monospace;font-size:9.8pt;&quot;&gt;&lt;pre&gt;&lt;span style=&quot;color:#a5c261;&quot;&gt;input_docs&lt;/span&gt;&lt;/pre&gt;&lt;/div&gt;" style="shape=note2;boundedLbl=1;whiteSpace=wrap;html=1;size=25;verticalAlign=top;align=left;spacingLeft=5;" parent="sJqgMgaKANiySwUrU2yU-15" vertex="1">
          <mxGeometry x="20" y="50" width="160" height="60" as="geometry" />
        </mxCell>
        <mxCell id="sJqgMgaKANiySwUrU2yU-19" value="Input" style="resizeWidth=1;part=1;strokeColor=none;fillColor=none;align=left;spacingLeft=5;html=1;whiteSpace=wrap;" parent="sJqgMgaKANiySwUrU2yU-18" vertex="1">
          <mxGeometry width="160" height="25" relative="1" as="geometry" />
        </mxCell>
        <mxCell id="sJqgMgaKANiySwUrU2yU-20" value="displayBox" style="shape=ext;double=1;rounded=1;whiteSpace=wrap;html=1;" parent="sJqgMgaKANiySwUrU2yU-15" vertex="1">
          <mxGeometry x="20" y="150" width="160" height="80" as="geometry" />
        </mxCell>
        <mxCell id="sJqgMgaKANiySwUrU2yU-21" value="“Processing”" style="edgeStyle=orthogonalEdgeStyle;orthogonalLoop=1;jettySize=auto;html=1;rounded=0;exitX=0.499;exitY=0.999;exitDx=0;exitDy=0;exitPerimeter=0;entryX=1;entryY=0.5;entryDx=0;entryDy=0;" parent="sJqgMgaKANiySwUrU2yU-15" source="sJqgMgaKANiySwUrU2yU-16" target="sJqgMgaKANiySwUrU2yU-20" edge="1">
          <mxGeometry width="80" relative="1" as="geometry">
            <mxPoint x="150" y="240" as="sourcePoint" />
            <mxPoint x="230" y="240" as="targetPoint" />
          </mxGeometry>
        </mxCell>
        <mxCell id="sJqgMgaKANiySwUrU2yU-22" style="edgeStyle=orthogonalEdgeStyle;rounded=0;orthogonalLoop=1;jettySize=auto;html=1;exitX=0;exitY=1;exitDx=0;exitDy=0;entryX=0;entryY=0.5;entryDx=0;entryDy=0;" parent="1" source="sJqgMgaKANiySwUrU2yU-19" target="sJqgMgaKANiySwUrU2yU-14" edge="1">
          <mxGeometry relative="1" as="geometry">
            <Array as="points">
              <mxPoint x="-300" y="35" />
              <mxPoint x="-300" y="355" />
            </Array>
          </mxGeometry>
        </mxCell>
        <mxCell id="sJqgMgaKANiySwUrU2yU-23" style="edgeStyle=orthogonalEdgeStyle;rounded=0;orthogonalLoop=1;jettySize=auto;html=1;exitX=1;exitY=0.5;exitDx=0;exitDy=0;endArrow=classic;endFill=1;strokeColor=default;startArrow=classic;startFill=1;" parent="1" source="sJqgMgaKANiySwUrU2yU-14" target="sJqgMgaKANiySwUrU2yU-8" edge="1">
          <mxGeometry relative="1" as="geometry" />
        </mxCell>
        <mxCell id="sJqgMgaKANiySwUrU2yU-24" style="edgeStyle=orthogonalEdgeStyle;rounded=0;orthogonalLoop=1;jettySize=auto;html=1;exitX=0.75;exitY=0;exitDx=0;exitDy=0;entryX=0.75;entryY=1;entryDx=0;entryDy=0;" parent="1" source="sJqgMgaKANiySwUrU2yU-14" target="sJqgMgaKANiySwUrU2yU-20" edge="1">
          <mxGeometry relative="1" as="geometry" />
        </mxCell>
        <mxCell id="sJqgMgaKANiySwUrU2yU-25" value="backend_e&lt;span style=&quot;background-color: initial;&quot;&gt;lement.py&lt;/span&gt;" style="swimlane;whiteSpace=wrap;html=1;" parent="1" vertex="1">
          <mxGeometry x="70" y="-40" width="380" height="250" as="geometry">
            <mxRectangle x="200" y="200" width="100" height="30" as="alternateBounds" />
          </mxGeometry>
        </mxCell>
        <mxCell id="sJqgMgaKANiySwUrU2yU-26" value="&lt;p style=&quot;margin:0px;margin-top:4px;text-align:center;&quot;&gt;&lt;i&gt;&amp;lt;&amp;lt;Class&amp;gt;&amp;gt;&lt;/i&gt;&lt;br&gt;&lt;b&gt;backend_docs_separate&lt;/b&gt;&lt;br&gt;&lt;/p&gt;&lt;hr size=&quot;1&quot; style=&quot;border-style:solid;&quot;&gt;&lt;p style=&quot;margin:0px;margin-left:4px;&quot;&gt;load_doc(self,file_data)&lt;/p&gt;&lt;p style=&quot;margin:0px;margin-left:4px;&quot;&gt;&lt;br&gt;&lt;/p&gt;" style="verticalAlign=top;align=left;overflow=fill;html=1;whiteSpace=wrap;" parent="sJqgMgaKANiySwUrU2yU-25" vertex="1">
          <mxGeometry x="30" y="40" width="190" height="80" as="geometry" />
        </mxCell>
        <mxCell id="sJqgMgaKANiySwUrU2yU-27" value="&lt;p style=&quot;margin:0px;margin-top:4px;text-align:center;&quot;&gt;&lt;i&gt;&amp;lt;&amp;lt;&lt;/i&gt;&lt;i&gt;Class&lt;/i&gt;&lt;i&gt;&amp;gt;&amp;gt;&lt;/i&gt;&lt;br&gt;&lt;b&gt;backend_embedding&lt;/b&gt;&lt;br&gt;&lt;/p&gt;&lt;hr size=&quot;1&quot; style=&quot;border-style:solid;&quot;&gt;&lt;p style=&quot;margin:0px;margin-left:4px;&quot;&gt;transfer_context2vector&lt;/p&gt;&lt;p style=&quot;margin:0px;margin-left:4px;&quot;&gt;(self,contexts)&lt;br&gt;&lt;/p&gt;&lt;hr size=&quot;1&quot; style=&quot;border-style:solid;&quot;&gt;&lt;p style=&quot;margin:0px;margin-left:4px;&quot;&gt;transfer_query2vector(self,query)&lt;br&gt;&lt;/p&gt;" style="verticalAlign=top;align=left;overflow=fill;html=1;whiteSpace=wrap;" parent="sJqgMgaKANiySwUrU2yU-25" vertex="1">
          <mxGeometry x="31" y="130" width="190" height="100" as="geometry" />
        </mxCell>
      </root>
    </mxGraphModel>
  </diagram>
  <diagram id="L5Bhxi6oNBr4Z5N-QQxp" name="Database_list">
    <mxGraphModel dx="1973" dy="1784" grid="1" gridSize="10" guides="1" tooltips="1" connect="1" arrows="1" fold="1" page="1" pageScale="1" pageWidth="850" pageHeight="1100" math="0" shadow="0">
      <root>
        <mxCell id="0" />
        <mxCell id="1" parent="0" />
        <mxCell id="bm9VMVY0Gpvryz6V1HBZ-1" value="Models.py" style="swimlane;whiteSpace=wrap;html=1;" parent="1" vertex="1">
          <mxGeometry x="190" y="230" width="250" height="250" as="geometry">
            <mxRectangle x="200" y="200" width="100" height="30" as="alternateBounds" />
          </mxGeometry>
        </mxCell>
        <mxCell id="bm9VMVY0Gpvryz6V1HBZ-2" value="" style="group" parent="bm9VMVY0Gpvryz6V1HBZ-1" vertex="1" connectable="0">
          <mxGeometry x="30" y="30" width="220" height="210" as="geometry" />
        </mxCell>
        <mxCell id="bm9VMVY0Gpvryz6V1HBZ-3" value="&lt;div style=&quot;box-sizing:border-box;width:100%;background:#e4e4e4;padding:2px;&quot;&gt;Document&lt;/div&gt;&lt;table style=&quot;width:100%;font-size:1em;&quot; cellpadding=&quot;2&quot; cellspacing=&quot;0&quot;&gt;&lt;tbody&gt;&lt;tr&gt;&lt;td&gt;PK&lt;/td&gt;&lt;td&gt;ID&lt;/td&gt;&lt;/tr&gt;&lt;tr&gt;&lt;td&gt;&lt;br&gt;&lt;/td&gt;&lt;td&gt;filename:CharField&lt;br&gt;&lt;/td&gt;&lt;/tr&gt;&lt;tr&gt;&lt;td&gt;&lt;br&gt;&lt;/td&gt;&lt;td&gt;&lt;br&gt;&lt;/td&gt;&lt;/tr&gt;&lt;/tbody&gt;&lt;/table&gt;" style="verticalAlign=top;align=left;overflow=fill;html=1;whiteSpace=wrap;movable=1;resizable=1;rotatable=1;deletable=1;editable=1;locked=0;connectable=1;" parent="bm9VMVY0Gpvryz6V1HBZ-2" vertex="1">
          <mxGeometry width="180" height="60" as="geometry" />
        </mxCell>
        <mxCell id="bm9VMVY0Gpvryz6V1HBZ-4" value="&lt;div style=&quot;box-sizing:border-box;width:100%;background:#e4e4e4;padding:2px;&quot;&gt;DocumentChunk&lt;br&gt;&lt;/div&gt;&lt;table style=&quot;width:100%;font-size:1em;&quot; cellpadding=&quot;2&quot; cellspacing=&quot;0&quot;&gt;&lt;tbody&gt;&lt;tr&gt;&lt;td&gt;PK&lt;/td&gt;&lt;td&gt;chunk_id:AutoField&lt;br&gt;&lt;/td&gt;&lt;/tr&gt;&lt;tr&gt;&lt;td&gt;FK1&lt;/td&gt;&lt;td&gt;document&lt;/td&gt;&lt;/tr&gt;&lt;tr&gt;&lt;td&gt;&lt;/td&gt;&lt;td&gt;text:TextField&lt;br&gt;vector:VectorField&lt;br&gt;&lt;/td&gt;&lt;/tr&gt;&lt;/tbody&gt;&lt;/table&gt;" style="verticalAlign=top;align=left;overflow=fill;html=1;whiteSpace=wrap;movable=1;resizable=1;rotatable=1;deletable=1;editable=1;locked=0;connectable=1;" parent="bm9VMVY0Gpvryz6V1HBZ-2" vertex="1">
          <mxGeometry y="120" width="180" height="90" as="geometry" />
        </mxCell>
        <mxCell id="bm9VMVY0Gpvryz6V1HBZ-5" value="" style="edgeStyle=entityRelationEdgeStyle;fontSize=12;html=1;endArrow=ERmany;rounded=0;exitX=1;exitY=0.5;exitDx=0;exitDy=0;entryX=1;entryY=0.5;entryDx=0;entryDy=0;movable=1;resizable=1;rotatable=1;deletable=1;editable=1;locked=0;connectable=1;" parent="bm9VMVY0Gpvryz6V1HBZ-2" source="bm9VMVY0Gpvryz6V1HBZ-3" target="bm9VMVY0Gpvryz6V1HBZ-4" edge="1">
          <mxGeometry width="100" height="100" relative="1" as="geometry">
            <mxPoint x="210" y="60" as="sourcePoint" />
            <mxPoint x="210" y="120" as="targetPoint" />
            <Array as="points">
              <mxPoint x="210" y="90" />
              <mxPoint x="220" y="100" />
            </Array>
          </mxGeometry>
        </mxCell>
        <mxCell id="bm9VMVY0Gpvryz6V1HBZ-6" value="Views.py" style="swimlane;whiteSpace=wrap;html=1;" parent="1" vertex="1">
          <mxGeometry x="-140" y="230" width="280" height="250" as="geometry">
            <mxRectangle x="200" y="200" width="100" height="30" as="alternateBounds" />
          </mxGeometry>
        </mxCell>
        <mxCell id="bm9VMVY0Gpvryz6V1HBZ-7" value="&lt;p style=&quot;margin:0px;margin-top:4px;text-align:center;&quot;&gt;&lt;i&gt;&amp;lt;&amp;lt;def&amp;gt;&amp;gt;&lt;/i&gt;&lt;br&gt;&lt;b&gt;get_documents&lt;/b&gt;&lt;br&gt;&lt;/p&gt;&lt;hr size=&quot;1&quot; style=&quot;border-style:solid;&quot;&gt;&lt;p style=&quot;margin:0px;margin-left:4px;&quot;&gt;POST&lt;/p&gt;&lt;hr size=&quot;1&quot; style=&quot;border-style:solid;&quot;&gt;&lt;p style=&quot;margin:0px;margin-left:4px;&quot;&gt;JsonResponse([{&quot;id&quot;,&quot;filename&quot;}]&lt;/p&gt;&lt;p style=&quot;margin:0px;margin-left:4px;&quot;&gt;)&lt;/p&gt;" style="verticalAlign=top;align=left;overflow=fill;html=1;whiteSpace=wrap;" parent="bm9VMVY0Gpvryz6V1HBZ-6" vertex="1">
          <mxGeometry x="30" y="40" width="190" height="100" as="geometry" />
        </mxCell>
        <mxCell id="bm9VMVY0Gpvryz6V1HBZ-8" value="&lt;p style=&quot;margin:0px;margin-top:4px;text-align:center;&quot;&gt;&lt;i&gt;&amp;lt;&amp;lt;def&amp;gt;&amp;gt;&lt;/i&gt;&lt;br&gt;&lt;b&gt;clear_database&lt;/b&gt;&lt;br&gt;&lt;/p&gt;&lt;hr size=&quot;1&quot; style=&quot;border-style:solid;&quot;&gt;&lt;p style=&quot;margin:0px;margin-left:4px;&quot;&gt;POST&lt;/p&gt;&lt;hr size=&quot;1&quot; style=&quot;border-style:solid;&quot;&gt;&lt;p style=&quot;margin:0px;margin-left:4px;&quot;&gt;&lt;span style=&quot;background-color: initial;&quot;&gt;return HttpResponse&lt;/span&gt;&lt;br&gt;&lt;/p&gt;" style="verticalAlign=top;align=left;overflow=fill;html=1;whiteSpace=wrap;" parent="bm9VMVY0Gpvryz6V1HBZ-6" vertex="1">
          <mxGeometry x="30" y="150" width="190" height="90" as="geometry" />
        </mxCell>
        <mxCell id="bm9VMVY0Gpvryz6V1HBZ-9" value="Urls.py" style="swimlane;whiteSpace=wrap;html=1;" parent="1" vertex="1">
          <mxGeometry x="-310" y="230" width="150" height="250" as="geometry">
            <mxRectangle x="200" y="200" width="100" height="30" as="alternateBounds" />
          </mxGeometry>
        </mxCell>
        <mxCell id="bm9VMVY0Gpvryz6V1HBZ-10" value="«url»&lt;br&gt;&lt;b&gt;clear-database/&lt;/b&gt;" style="html=1;whiteSpace=wrap;" parent="bm9VMVY0Gpvryz6V1HBZ-9" vertex="1">
          <mxGeometry x="20" y="160" width="110" height="50" as="geometry" />
        </mxCell>
        <mxCell id="bm9VMVY0Gpvryz6V1HBZ-11" value="«url»&lt;br&gt;&lt;b&gt;get-documents/&lt;/b&gt;" style="html=1;whiteSpace=wrap;" parent="bm9VMVY0Gpvryz6V1HBZ-9" vertex="1">
          <mxGeometry x="20" y="50" width="110" height="50" as="geometry" />
        </mxCell>
        <mxCell id="bm9VMVY0Gpvryz6V1HBZ-12" value="HTML Database" style="swimlane;whiteSpace=wrap;html=1;" parent="1" vertex="1">
          <mxGeometry x="-310" y="-40" width="350" height="250" as="geometry">
            <mxRectangle x="200" y="200" width="100" height="30" as="alternateBounds" />
          </mxGeometry>
        </mxCell>
        <mxCell id="bm9VMVY0Gpvryz6V1HBZ-13" value="Clear Database" style="labelPosition=center;verticalLabelPosition=middle;align=center;html=1;shape=mxgraph.basic.button;dx=7.9;whiteSpace=wrap;" parent="bm9VMVY0Gpvryz6V1HBZ-12" vertex="1">
          <mxGeometry x="30" y="50" width="100" height="60" as="geometry" />
        </mxCell>
        <mxCell id="bm9VMVY0Gpvryz6V1HBZ-14" value="documentsForm" style="shape=ext;double=1;rounded=1;whiteSpace=wrap;html=1;" parent="bm9VMVY0Gpvryz6V1HBZ-12" vertex="1">
          <mxGeometry x="160" y="150" width="160" height="80" as="geometry" />
        </mxCell>
        <mxCell id="bm9VMVY0Gpvryz6V1HBZ-15" value="looklistBtn" style="labelPosition=center;verticalLabelPosition=middle;align=center;html=1;shape=mxgraph.basic.button;dx=7.9;whiteSpace=wrap;" parent="bm9VMVY0Gpvryz6V1HBZ-12" vertex="1">
          <mxGeometry x="30" y="160" width="100" height="60" as="geometry" />
        </mxCell>
        <mxCell id="bm9VMVY0Gpvryz6V1HBZ-16" style="edgeStyle=orthogonalEdgeStyle;rounded=0;orthogonalLoop=1;jettySize=auto;html=1;entryX=0;entryY=0.5;entryDx=0;entryDy=0;exitX=-0.022;exitY=0.579;exitDx=0;exitDy=0;exitPerimeter=0;" parent="1" source="bm9VMVY0Gpvryz6V1HBZ-13" target="bm9VMVY0Gpvryz6V1HBZ-10" edge="1">
          <mxGeometry relative="1" as="geometry">
            <Array as="points">
              <mxPoint x="-330" y="45" />
              <mxPoint x="-330" y="415" />
            </Array>
          </mxGeometry>
        </mxCell>
        <mxCell id="bm9VMVY0Gpvryz6V1HBZ-17" style="edgeStyle=orthogonalEdgeStyle;rounded=0;orthogonalLoop=1;jettySize=auto;html=1;exitX=1;exitY=0.5;exitDx=0;exitDy=0;entryX=0;entryY=0.5;entryDx=0;entryDy=0;startArrow=classic;startFill=1;" parent="1" source="bm9VMVY0Gpvryz6V1HBZ-10" target="bm9VMVY0Gpvryz6V1HBZ-8" edge="1">
          <mxGeometry relative="1" as="geometry" />
        </mxCell>
        <mxCell id="bm9VMVY0Gpvryz6V1HBZ-18" value="delete" style="edgeStyle=orthogonalEdgeStyle;rounded=0;orthogonalLoop=1;jettySize=auto;html=1;exitX=1;exitY=0.25;exitDx=0;exitDy=0;entryX=0;entryY=0.75;entryDx=0;entryDy=0;" parent="1" source="bm9VMVY0Gpvryz6V1HBZ-8" target="bm9VMVY0Gpvryz6V1HBZ-3" edge="1">
          <mxGeometry relative="1" as="geometry" />
        </mxCell>
        <mxCell id="bm9VMVY0Gpvryz6V1HBZ-19" value="delete" style="edgeStyle=orthogonalEdgeStyle;rounded=0;orthogonalLoop=1;jettySize=auto;html=1;exitX=1;exitY=0.75;exitDx=0;exitDy=0;entryX=0;entryY=0.75;entryDx=0;entryDy=0;" parent="1" source="bm9VMVY0Gpvryz6V1HBZ-8" target="bm9VMVY0Gpvryz6V1HBZ-4" edge="1">
          <mxGeometry relative="1" as="geometry" />
        </mxCell>
        <mxCell id="bm9VMVY0Gpvryz6V1HBZ-20" style="edgeStyle=orthogonalEdgeStyle;rounded=0;orthogonalLoop=1;jettySize=auto;html=1;exitX=0.054;exitY=1.018;exitDx=0;exitDy=0;exitPerimeter=0;" parent="1" source="bm9VMVY0Gpvryz6V1HBZ-15" target="bm9VMVY0Gpvryz6V1HBZ-11" edge="1">
          <mxGeometry relative="1" as="geometry">
            <Array as="points">
              <mxPoint x="-275" y="230" />
              <mxPoint x="-275" y="230" />
            </Array>
          </mxGeometry>
        </mxCell>
        <mxCell id="bm9VMVY0Gpvryz6V1HBZ-21" style="edgeStyle=orthogonalEdgeStyle;rounded=0;orthogonalLoop=1;jettySize=auto;html=1;exitX=1;exitY=0.5;exitDx=0;exitDy=0;startArrow=classic;startFill=1;" parent="1" source="bm9VMVY0Gpvryz6V1HBZ-11" target="bm9VMVY0Gpvryz6V1HBZ-7" edge="1">
          <mxGeometry relative="1" as="geometry" />
        </mxCell>
        <mxCell id="bm9VMVY0Gpvryz6V1HBZ-22" style="edgeStyle=orthogonalEdgeStyle;rounded=0;orthogonalLoop=1;jettySize=auto;html=1;exitX=0.75;exitY=0;exitDx=0;exitDy=0;" parent="1" source="bm9VMVY0Gpvryz6V1HBZ-11" edge="1">
          <mxGeometry relative="1" as="geometry">
            <mxPoint x="-60" y="270" as="sourcePoint" />
            <mxPoint x="-60" y="190" as="targetPoint" />
            <Array as="points">
              <mxPoint x="-207" y="200" />
              <mxPoint x="-60" y="200" />
            </Array>
          </mxGeometry>
        </mxCell>
        <mxCell id="bm9VMVY0Gpvryz6V1HBZ-23" value="filename, id" style="edgeStyle=orthogonalEdgeStyle;rounded=0;orthogonalLoop=1;jettySize=auto;html=1;exitX=0;exitY=0.25;exitDx=0;exitDy=0;entryX=1;entryY=0.25;entryDx=0;entryDy=0;" parent="1" source="bm9VMVY0Gpvryz6V1HBZ-3" target="bm9VMVY0Gpvryz6V1HBZ-7" edge="1">
          <mxGeometry relative="1" as="geometry" />
        </mxCell>
      </root>
    </mxGraphModel>
  </diagram>
  <diagram id="iGCbBIFCo3CdclD05rwQ" name="Database_delete&amp;show">
    <mxGraphModel dx="1775" dy="1664" grid="1" gridSize="10" guides="1" tooltips="1" connect="1" arrows="1" fold="1" page="1" pageScale="1" pageWidth="850" pageHeight="1100" math="0" shadow="0">
      <root>
        <mxCell id="0" />
        <mxCell id="1" parent="0" />
        <mxCell id="bVoOVbKwZtVTsXY3nfjJ-1" value="Models.py" style="swimlane;whiteSpace=wrap;html=1;" vertex="1" parent="1">
          <mxGeometry x="190" y="230" width="250" height="250" as="geometry">
            <mxRectangle x="200" y="200" width="100" height="30" as="alternateBounds" />
          </mxGeometry>
        </mxCell>
        <mxCell id="bVoOVbKwZtVTsXY3nfjJ-3" value="&lt;div style=&quot;box-sizing:border-box;width:100%;background:#e4e4e4;padding:2px;&quot;&gt;Document&lt;/div&gt;&lt;table style=&quot;width:100%;font-size:1em;&quot; cellpadding=&quot;2&quot; cellspacing=&quot;0&quot;&gt;&lt;tbody&gt;&lt;tr&gt;&lt;td&gt;PK&lt;/td&gt;&lt;td&gt;ID&lt;/td&gt;&lt;/tr&gt;&lt;tr&gt;&lt;td&gt;&lt;br&gt;&lt;/td&gt;&lt;td&gt;filename:CharField&lt;br&gt;&lt;/td&gt;&lt;/tr&gt;&lt;tr&gt;&lt;td&gt;&lt;br&gt;&lt;/td&gt;&lt;td&gt;&lt;br&gt;&lt;/td&gt;&lt;/tr&gt;&lt;/tbody&gt;&lt;/table&gt;" style="verticalAlign=top;align=left;overflow=fill;html=1;whiteSpace=wrap;movable=1;resizable=1;rotatable=1;deletable=1;editable=1;locked=0;connectable=1;" vertex="1" parent="bVoOVbKwZtVTsXY3nfjJ-1">
          <mxGeometry x="30" y="170" width="180" height="60" as="geometry" />
        </mxCell>
        <mxCell id="bVoOVbKwZtVTsXY3nfjJ-4" value="&lt;div style=&quot;box-sizing:border-box;width:100%;background:#e4e4e4;padding:2px;&quot;&gt;DocumentChunk&lt;br&gt;&lt;/div&gt;&lt;table style=&quot;width:100%;font-size:1em;&quot; cellpadding=&quot;2&quot; cellspacing=&quot;0&quot;&gt;&lt;tbody&gt;&lt;tr&gt;&lt;td&gt;PK&lt;/td&gt;&lt;td&gt;chunk_id:AutoField&lt;br&gt;&lt;/td&gt;&lt;/tr&gt;&lt;tr&gt;&lt;td&gt;FK1&lt;/td&gt;&lt;td&gt;document&lt;/td&gt;&lt;/tr&gt;&lt;tr&gt;&lt;td&gt;&lt;/td&gt;&lt;td&gt;text:TextField&lt;br&gt;vector:VectorField&lt;br&gt;&lt;/td&gt;&lt;/tr&gt;&lt;/tbody&gt;&lt;/table&gt;" style="verticalAlign=top;align=left;overflow=fill;html=1;whiteSpace=wrap;movable=1;resizable=1;rotatable=1;deletable=1;editable=1;locked=0;connectable=1;" vertex="1" parent="bVoOVbKwZtVTsXY3nfjJ-1">
          <mxGeometry x="30" y="30" width="180" height="90" as="geometry" />
        </mxCell>
        <mxCell id="bVoOVbKwZtVTsXY3nfjJ-5" value="" style="edgeStyle=entityRelationEdgeStyle;fontSize=12;html=1;endArrow=ERmany;rounded=0;exitX=1;exitY=0.5;exitDx=0;exitDy=0;entryX=1;entryY=0.5;entryDx=0;entryDy=0;movable=1;resizable=1;rotatable=1;deletable=1;editable=1;locked=0;connectable=1;" edge="1" parent="bVoOVbKwZtVTsXY3nfjJ-1" source="bVoOVbKwZtVTsXY3nfjJ-3" target="bVoOVbKwZtVTsXY3nfjJ-4">
          <mxGeometry width="100" height="100" relative="1" as="geometry">
            <mxPoint x="240" y="90" as="sourcePoint" />
            <mxPoint x="240" y="150" as="targetPoint" />
            <Array as="points">
              <mxPoint x="240" y="120" />
              <mxPoint x="250" y="130" />
            </Array>
          </mxGeometry>
        </mxCell>
        <mxCell id="bVoOVbKwZtVTsXY3nfjJ-6" value="Views.py" style="swimlane;whiteSpace=wrap;html=1;" vertex="1" parent="1">
          <mxGeometry x="-140" y="230" width="280" height="290" as="geometry">
            <mxRectangle x="200" y="200" width="100" height="30" as="alternateBounds" />
          </mxGeometry>
        </mxCell>
        <mxCell id="bVoOVbKwZtVTsXY3nfjJ-7" value="&lt;p style=&quot;margin:0px;margin-top:4px;text-align:center;&quot;&gt;&lt;i&gt;&amp;lt;&amp;lt;def&amp;gt;&amp;gt;&lt;/i&gt;&lt;br&gt;&lt;b&gt;show_documents&lt;/b&gt;&lt;br&gt;&lt;/p&gt;&lt;hr size=&quot;1&quot; style=&quot;border-style:solid;&quot;&gt;&lt;p style=&quot;margin:0px;margin-left:4px;&quot;&gt;POST:&lt;/p&gt;&lt;p style=&quot;margin:0px;margin-left:4px;&quot;&gt;data:list file ids&lt;/p&gt;&lt;hr size=&quot;1&quot; style=&quot;border-style:solid;&quot;&gt;&lt;p style=&quot;margin:0px;margin-left:4px;&quot;&gt;&lt;span style=&quot;background-color: initial;&quot;&gt;return JsonResponse({&#39;texts&#39;: return_str})&lt;/span&gt;&lt;br&gt;&lt;/p&gt;" style="verticalAlign=top;align=left;overflow=fill;html=1;whiteSpace=wrap;" vertex="1" parent="bVoOVbKwZtVTsXY3nfjJ-6">
          <mxGeometry x="30" y="40" width="190" height="120" as="geometry" />
        </mxCell>
        <mxCell id="bVoOVbKwZtVTsXY3nfjJ-8" value="&lt;p style=&quot;margin:0px;margin-top:4px;text-align:center;&quot;&gt;&lt;i&gt;&amp;lt;&amp;lt;def&amp;gt;&amp;gt;&lt;/i&gt;&lt;br&gt;&lt;b&gt;delete_documents&lt;/b&gt;&lt;br&gt;&lt;/p&gt;&lt;hr size=&quot;1&quot; style=&quot;border-style:solid;&quot;&gt;&lt;p style=&quot;margin:0px;margin-left:4px;&quot;&gt;POST:&lt;/p&gt;&lt;p style=&quot;margin:0px;margin-left:4px;&quot;&gt;data:list file ids&lt;/p&gt;&lt;hr size=&quot;1&quot; style=&quot;border-style:solid;&quot;&gt;&lt;p style=&quot;margin:0px;margin-left:4px;&quot;&gt;&lt;span style=&quot;background-color: initial;&quot;&gt;return HttpResponse&lt;/span&gt;&lt;br&gt;&lt;/p&gt;" style="verticalAlign=top;align=left;overflow=fill;html=1;whiteSpace=wrap;" vertex="1" parent="bVoOVbKwZtVTsXY3nfjJ-6">
          <mxGeometry x="30" y="180" width="190" height="100" as="geometry" />
        </mxCell>
        <mxCell id="bVoOVbKwZtVTsXY3nfjJ-9" value="Urls.py" style="swimlane;whiteSpace=wrap;html=1;" vertex="1" parent="1">
          <mxGeometry x="-310" y="230" width="150" height="250" as="geometry">
            <mxRectangle x="200" y="200" width="100" height="30" as="alternateBounds" />
          </mxGeometry>
        </mxCell>
        <mxCell id="bVoOVbKwZtVTsXY3nfjJ-10" value="«url»&lt;br&gt;&lt;b&gt;delete-documents/&lt;/b&gt;" style="html=1;whiteSpace=wrap;" vertex="1" parent="bVoOVbKwZtVTsXY3nfjJ-9">
          <mxGeometry x="20" y="160" width="110" height="50" as="geometry" />
        </mxCell>
        <mxCell id="bVoOVbKwZtVTsXY3nfjJ-11" value="«url»&lt;br&gt;&lt;b&gt;show-documents/&lt;/b&gt;" style="html=1;whiteSpace=wrap;" vertex="1" parent="bVoOVbKwZtVTsXY3nfjJ-9">
          <mxGeometry x="20" y="50" width="110" height="50" as="geometry" />
        </mxCell>
        <mxCell id="bVoOVbKwZtVTsXY3nfjJ-12" value="HTML Database" style="swimlane;whiteSpace=wrap;html=1;" vertex="1" parent="1">
          <mxGeometry x="-310" y="-40" width="350" height="250" as="geometry">
            <mxRectangle x="200" y="200" width="100" height="30" as="alternateBounds" />
          </mxGeometry>
        </mxCell>
        <mxCell id="bVoOVbKwZtVTsXY3nfjJ-13" value="deletefile" style="labelPosition=center;verticalLabelPosition=middle;align=center;html=1;shape=mxgraph.basic.button;dx=7.9;whiteSpace=wrap;" vertex="1" parent="bVoOVbKwZtVTsXY3nfjJ-12">
          <mxGeometry x="30" y="50" width="100" height="60" as="geometry" />
        </mxCell>
        <mxCell id="bVoOVbKwZtVTsXY3nfjJ-14" value="documentsForm" style="shape=ext;double=1;rounded=1;whiteSpace=wrap;html=1;" vertex="1" parent="bVoOVbKwZtVTsXY3nfjJ-12">
          <mxGeometry x="160" y="40" width="160" height="80" as="geometry" />
        </mxCell>
        <mxCell id="bVoOVbKwZtVTsXY3nfjJ-15" value="showthefile" style="labelPosition=center;verticalLabelPosition=middle;align=center;html=1;shape=mxgraph.basic.button;dx=7.9;whiteSpace=wrap;" vertex="1" parent="bVoOVbKwZtVTsXY3nfjJ-12">
          <mxGeometry x="30" y="160" width="100" height="60" as="geometry" />
        </mxCell>
        <mxCell id="bVoOVbKwZtVTsXY3nfjJ-24" value="showthefileBox" style="shape=ext;double=1;rounded=1;whiteSpace=wrap;html=1;" vertex="1" parent="bVoOVbKwZtVTsXY3nfjJ-12">
          <mxGeometry x="160" y="150" width="160" height="80" as="geometry" />
        </mxCell>
        <mxCell id="bVoOVbKwZtVTsXY3nfjJ-16" style="edgeStyle=orthogonalEdgeStyle;rounded=0;orthogonalLoop=1;jettySize=auto;html=1;entryX=0;entryY=0.5;entryDx=0;entryDy=0;exitX=-0.022;exitY=0.579;exitDx=0;exitDy=0;exitPerimeter=0;" edge="1" parent="1" source="bVoOVbKwZtVTsXY3nfjJ-13" target="bVoOVbKwZtVTsXY3nfjJ-10">
          <mxGeometry relative="1" as="geometry">
            <Array as="points">
              <mxPoint x="-330" y="45" />
              <mxPoint x="-330" y="415" />
            </Array>
          </mxGeometry>
        </mxCell>
        <mxCell id="bVoOVbKwZtVTsXY3nfjJ-17" style="edgeStyle=orthogonalEdgeStyle;rounded=0;orthogonalLoop=1;jettySize=auto;html=1;exitX=1;exitY=0.5;exitDx=0;exitDy=0;entryX=0;entryY=0.5;entryDx=0;entryDy=0;startArrow=classic;startFill=1;" edge="1" parent="1" source="bVoOVbKwZtVTsXY3nfjJ-10" target="bVoOVbKwZtVTsXY3nfjJ-8">
          <mxGeometry relative="1" as="geometry" />
        </mxCell>
        <mxCell id="bVoOVbKwZtVTsXY3nfjJ-20" style="edgeStyle=orthogonalEdgeStyle;rounded=0;orthogonalLoop=1;jettySize=auto;html=1;exitX=0.054;exitY=1.018;exitDx=0;exitDy=0;exitPerimeter=0;" edge="1" parent="1" source="bVoOVbKwZtVTsXY3nfjJ-15" target="bVoOVbKwZtVTsXY3nfjJ-11">
          <mxGeometry relative="1" as="geometry">
            <Array as="points">
              <mxPoint x="-275" y="230" />
              <mxPoint x="-275" y="230" />
            </Array>
          </mxGeometry>
        </mxCell>
        <mxCell id="bVoOVbKwZtVTsXY3nfjJ-21" style="edgeStyle=orthogonalEdgeStyle;rounded=0;orthogonalLoop=1;jettySize=auto;html=1;exitX=1;exitY=0.5;exitDx=0;exitDy=0;startArrow=classic;startFill=1;" edge="1" parent="1" source="bVoOVbKwZtVTsXY3nfjJ-11" target="bVoOVbKwZtVTsXY3nfjJ-7">
          <mxGeometry relative="1" as="geometry" />
        </mxCell>
        <mxCell id="bVoOVbKwZtVTsXY3nfjJ-23" value="document_id[:4]" style="edgeStyle=orthogonalEdgeStyle;rounded=0;orthogonalLoop=1;jettySize=auto;html=1;exitX=0;exitY=0.25;exitDx=0;exitDy=0;entryX=1;entryY=0.25;entryDx=0;entryDy=0;" edge="1" parent="1" source="bVoOVbKwZtVTsXY3nfjJ-4" target="bVoOVbKwZtVTsXY3nfjJ-7">
          <mxGeometry relative="1" as="geometry">
            <Array as="points">
              <mxPoint x="220" y="300" />
            </Array>
          </mxGeometry>
        </mxCell>
        <mxCell id="RLbBqFpbmCsU39mazD_g-1" value="Delete by ids" style="edgeStyle=orthogonalEdgeStyle;rounded=0;orthogonalLoop=1;jettySize=auto;html=1;exitX=1;exitY=0.5;exitDx=0;exitDy=0;entryX=0;entryY=0.5;entryDx=0;entryDy=0;" edge="1" parent="1" source="bVoOVbKwZtVTsXY3nfjJ-8" target="bVoOVbKwZtVTsXY3nfjJ-3">
          <mxGeometry relative="1" as="geometry" />
        </mxCell>
        <mxCell id="RLbBqFpbmCsU39mazD_g-2" style="edgeStyle=orthogonalEdgeStyle;rounded=0;orthogonalLoop=1;jettySize=auto;html=1;exitX=0.5;exitY=0;exitDx=0;exitDy=0;entryX=0.25;entryY=1;entryDx=0;entryDy=0;" edge="1" parent="1" source="bVoOVbKwZtVTsXY3nfjJ-11" target="bVoOVbKwZtVTsXY3nfjJ-24">
          <mxGeometry relative="1" as="geometry" />
        </mxCell>
        <mxCell id="RLbBqFpbmCsU39mazD_g-4" style="edgeStyle=orthogonalEdgeStyle;rounded=0;orthogonalLoop=1;jettySize=auto;html=1;exitX=0.75;exitY=0;exitDx=0;exitDy=0;entryX=0.25;entryY=0;entryDx=0;entryDy=0;" edge="1" parent="1" source="bVoOVbKwZtVTsXY3nfjJ-10" target="bVoOVbKwZtVTsXY3nfjJ-14">
          <mxGeometry relative="1" as="geometry">
            <Array as="points">
              <mxPoint x="-207" y="370" />
              <mxPoint x="-340" y="370" />
              <mxPoint x="-340" y="-20" />
              <mxPoint x="-110" y="-20" />
            </Array>
          </mxGeometry>
        </mxCell>
      </root>
    </mxGraphModel>
  </diagram>
</mxfile>
